PathFileType	4	(X/Y/Z)	c:/Users/goper/Files/vsCode/490R/osim_files/C05/C05_Slow_04.trc
DataRate	CameraRate	NumFrames	NumMarkers	Units                	OrigDataRate	OrigDataStartFrame	OrigNumFrames
250.00	250.00	7	36	mm	250.0	1028	2739
                Frame#	Time	LPSIS			LASIS			LTH1			LTH2			LTH3			LTH4			LLFE			LMFE			LSH1			LSH2			LSH3			LSH4			LLMAL			LMMAL			LCAL			LMTP5			LTOE			LMTP1			RPSIS			RASIS			RTH1			RTH2			RTH3			RTH4			RLFE			RMFE			RSH1			RSH2			RSH3			RSH4			RLMAL			RMMAL			RCAL			RMTP1			RTOE			RMTP5		
		X1	Y1	Z1	X2	Y2	Z2	X3	Y3	Z3	X4	Y4	Z4	X5	Y5	Z5	X6	Y6	Z6	X7	Y7	Z7	X8	Y8	Z8	X9	Y9	Z9	X10	Y10	Z10	X11	Y11	Z11	X12	Y12	Z12	X13	Y13	Z13	X14	Y14	Z14	X15	Y15	Z15	X16	Y16	Z16	X17	Y17	Z17	X18	Y18	Z18	X19	Y19	Z19	X20	Y20	Z20	X21	Y21	Z21	X22	Y22	Z22	X23	Y23	Z23	X24	Y24	Z24	X25	Y25	Z25	X26	Y26	Z26	X27	Y27	Z27	X28	Y28	Z28	X29	Y29	Z29	X30	Y30	Z30	X31	Y31	Z31	X32	Y32	Z32	X33	Y33	Z33	X34	Y34	Z34	X35	Y35	Z35	X36	Y36	Z36

1028	4.10800	898.71777	1025.32239	338.76007	694.53979	999.19171	384.60025	725.15210	680.51544	425.66360	700.97980	623.54999	412.46039	653.24725	705.87866	416.87866	639.12793	646.95184	403.76440	632.14880	537.92889	381.20752	651.43561	533.85596	269.14709	710.37238	354.73233	395.11560	705.30988	311.36667	389.88568	646.15186	356.04523	400.10684	0.00000	0.00000	0.00000	678.38269	90.96176	354.15771	653.43951	105.43110	271.34375	735.64948	63.59794	302.52127	536.73511	37.29749	380.61716	500.81564	64.93659	319.81613	513.00641	47.51772	272.83115	900.37213	1025.68066	229.02466	710.36914	984.06183	154.65854	759.40454	641.65167	114.16545	754.06616	578.35187	126.01508	833.77411	631.31488	122.03805	819.34210	570.71600	131.95865	0.00000	0.00000	0.00000	781.35596	481.35535	140.22285	942.09949	428.38846	123.40086	976.00403	393.84909	126.97788	904.80133	379.26831	124.63094	942.55811	352.45990	129.02292	1147.49854	231.52293	153.71637	1126.05188	221.71719	237.94562	1205.31458	274.95044	199.85197	1125.99719	76.52417	241.92953	1096.48291	69.20400	193.42610	1149.81384	87.49095	131.30641
1029	4.11200	894.54779	1025.89465	339.45789	690.42438	999.67297	385.11853	721.73181	680.78662	426.01108	698.23511	623.89801	412.76596	650.10553	706.02307	416.86911	636.46149	646.60626	404.56036	630.29248	537.97992	381.67017	649.61456	533.85846	269.29385	708.84784	354.84714	395.51175	703.93561	311.45273	390.21475	644.50134	355.89157	400.21808	0.00000	0.00000	0.00000	678.29718	90.95542	354.13687	653.39520	105.41698	271.33524	735.61633	63.61417	302.56195	536.69159	37.25919	380.61057	500.76880	64.81216	319.80029	512.97723	47.47948	272.80313	896.50433	1026.03735	229.77795	707.65576	984.77490	154.12431	752.44366	642.25214	114.12379	746.49268	578.96295	125.88551	826.64722	631.24518	122.25354	811.72223	570.77612	131.95302	0.00000	0.00000	0.00000	0.00000	0.00000	0.00000	933.08618	429.53589	123.38356	967.22174	395.29181	126.86361	896.12524	380.21912	124.46705	934.08911	353.75851	128.69511	1140.17773	234.41096	153.55882	1118.57019	223.92227	237.80540	1197.53284	278.40274	200.12495	1120.01904	78.95003	241.48285	1090.80103	71.33045	193.12958	1144.02332	90.44805	130.91426
1030	4.11600	890.38043	1026.44836	340.13959	686.78131	1000.02539	385.11707	717.84198	680.79419	426.37228	695.26740	624.13513	413.04117	646.97534	706.08093	417.00317	633.32971	647.00781	403.87466	628.04730	537.86456	381.70102	647.71179	533.82843	269.44354	707.17822	354.90018	395.92447	702.44720	311.51346	390.51703	642.82153	355.69165	400.20200	0.00000	0.00000	0.00000	678.24475	90.98689	354.16177	653.37299	105.41090	271.32849	735.55798	63.59668	302.61603	536.64209	37.21065	380.62244	500.86307	64.77137	319.93048	512.88196	47.31002	272.82541	892.63159	1026.45801	230.50264	703.83228	985.42957	154.28571	745.56567	642.90436	114.06009	738.94928	579.60425	125.72174	820.27356	631.74963	121.88451	804.14880	570.94464	131.94012	0.00000	0.00000	0.00000	763.95856	482.45355	139.38269	924.64362	431.33240	123.11786	958.41144	396.68268	126.68311	887.40631	381.15070	124.27112	925.53479	354.86987	128.49834	1132.81836	237.28949	153.41982	1111.11780	226.32173	237.74768	1189.63904	281.42520	200.13599	1113.07629	81.48380	240.96086	1084.12939	73.79647	192.04547	1137.76001	93.37276	130.52730
1031	4.12000	886.52240	1027.16797	340.67828	682.10406	1000.52197	384.90881	715.70453	681.62433	426.79681	692.36945	624.40338	413.32251	643.79633	706.27020	417.06705	630.43134	647.02728	403.83710	625.32397	537.71484	381.26553	645.88971	533.76788	269.63504	705.67432	355.05164	396.43130	701.01996	311.56168	390.91437	641.24542	355.64093	400.41431	0.00000	0.00000	0.00000	678.15869	91.02923	354.17197	653.31305	105.42569	271.33780	735.54193	63.64066	302.64377	536.60419	37.18165	380.64426	500.79028	64.66735	319.92847	512.90961	47.28845	272.76807	888.77301	1026.93750	231.15387	700.03131	986.12146	154.39978	738.65491	643.63165	113.96505	731.57153	580.45319	125.44154	812.59906	631.44666	122.47246	796.56207	571.13806	131.97923	0.00000	0.00000	0.00000	0.00000	0.00000	0.00000	915.14301	432.10193	123.24814	949.64307	398.19049	126.50497	878.76501	382.28110	123.94269	917.09937	356.19983	128.05295	1125.24976	240.13069	153.58270	1103.49841	228.96429	237.58804	1181.95215	284.25891	200.30444	1105.45789	84.08334	240.32872	1076.63818	76.77417	190.77585	1130.75757	96.14893	130.11043
1032	4.12400	882.25714	1027.67639	341.31061	677.93506	1001.09106	385.09958	712.61115	682.10168	427.20483	689.49036	624.70178	413.66037	640.60754	706.34039	415.11331	627.54211	647.22644	403.89081	623.27942	537.70514	381.63162	644.11133	533.72888	269.82062	704.03815	355.01880	396.96863	699.54706	311.57040	391.29156	639.61072	355.51514	400.55673	0.00000	0.00000	0.00000	678.06348	91.05933	354.18417	653.24365	105.42174	271.37503	735.50989	63.69775	302.66379	536.53571	37.14649	380.64148	500.72018	64.54745	319.93845	512.83514	47.18268	272.81290	884.95154	1027.39673	231.78519	696.31281	986.80353	154.56525	731.75067	644.38574	113.84412	724.19354	581.20380	125.19427	805.98236	631.86053	122.21368	788.52820	571.22968	132.39854	0.00000	0.00000	0.00000	748.15240	464.85416	252.62053	906.68011	433.90900	122.92094	941.03357	399.83835	126.32093	870.16626	383.42984	123.71068	908.63306	357.55145	127.72907	1117.81152	242.69867	153.15771	1095.58667	231.61414	237.47447	1174.29272	286.82373	200.54112	1097.23145	86.61963	239.66022	1068.82690	79.06992	190.42082	1123.26099	98.97240	129.66406
1033	4.12800	878.18365	1028.31677	341.87302	673.88922	1001.60895	385.18176	709.62048	682.55194	427.63580	686.77783	625.07800	414.06729	637.45520	706.65674	415.80292	624.68671	647.32233	403.79965	621.19672	537.63049	381.72278	642.36914	533.64398	270.04739	702.46808	355.06067	397.54562	698.16150	311.60025	391.68115	637.96771	355.26874	400.67203	0.00000	0.00000	0.00000	677.98767	91.11013	354.19131	653.18732	105.43015	271.39096	735.46118	63.75612	302.67206	536.49646	37.13488	380.65930	500.68729	64.46684	319.92203	512.70789	47.12215	272.80530	881.14001	1027.93372	232.34312	692.49713	987.54596	154.70650	724.81128	645.18921	113.71884	716.84058	582.15564	124.91424	798.93274	632.11786	122.29716	781.44574	571.82642	131.91342	0.00000	0.00000	0.00000	0.00000	0.00000	0.00000	897.86322	435.34213	122.70101	932.37909	401.35437	126.03542	861.57617	384.59561	123.60840	900.24896	358.98239	127.45847	1110.33435	245.57904	153.20039	1087.42798	234.21965	237.32277	1166.63635	288.85852	201.16032	1088.76184	89.10035	238.94615	1060.29053	82.09079	188.81525	1115.27356	101.62505	129.11891
1034	4.13200	873.81250	1028.80823	342.29422	669.45441	1002.22632	385.57242	706.52557	682.98395	428.10886	683.89868	625.38837	414.44470	634.31183	706.76923	416.16916	621.90540	647.50214	403.74750	618.84570	537.50555	381.49573	640.33545	533.40442	270.15570	700.98212	355.11169	398.08359	696.83185	311.64880	392.07556	636.54089	355.16006	400.76367	0.00000	0.00000	0.00000	677.92041	91.16351	354.22415	653.10718	105.44098	271.43054	735.43988	63.80281	302.70679	536.46826	37.11650	380.66132	500.62744	64.37405	319.90598	512.66107	47.06855	272.78912	877.28632	1028.45654	232.86929	688.74316	988.31720	154.82419	717.97278	646.08466	113.54913	709.42676	583.11542	124.63432	791.57178	632.08099	122.81054	773.89520	572.22620	131.91463	0.00000	0.00000	0.00000	729.65869	485.17673	137.88535	888.78278	436.44785	122.77906	923.83417	403.09061	125.86818	853.08722	385.94800	123.34554	891.81891	360.42319	127.36232	1102.58972	248.02820	153.16525	1079.23743	236.68869	237.15813	1159.03442	291.09738	201.66035	1079.87524	91.39787	238.17343	1051.46008	84.28011	188.61946	1106.83984	104.18165	128.55457
